<?xml version="1.0" standalone="no"?>
<!DOCTYPE svg PUBLIC "-//W3C//DTD SVG 20010904//EN"
 "http://www.w3.org/TR/2001/REC-SVG-20010904/DTD/svg10.dtd">
<svg version="1.0" xmlns="http://www.w3.org/2000/svg"
 width="50.000000pt" height="50.000000pt" viewBox="0 0 50.000000 50.000000"
 preserveAspectRatio="xMidYMid meet">

<g transform="translate(0.000000,50.000000) scale(0.100000,-0.100000)"
fill="#000000" stroke="none">
<path d="M153 493 c59 -2 154 -2 210 0 56 1 8 3 -108 3 -116 0 -161 -2 -102
-3z"/>
<path d="M3 420 c0 -25 2 -35 4 -22 2 12 2 32 0 45 -2 12 -4 2 -4 -23z"/>
<path d="M494 250 c0 -118 2 -167 3 -108 2 60 2 156 0 215 -1 60 -3 11 -3
-107z"/>
<path d="M110 385 c-11 -14 -10 -17 7 -21 19 -5 22 -16 28 -110 7 -99 6 -106
-14 -128 -38 -40 -28 -46 75 -46 68 0 106 5 130 16 67 32 83 86 38 131 -24 24
-24 26 -8 44 24 27 22 75 -5 102 -19 19 -34 22 -129 25 -91 3 -110 1 -122 -13z
m174 -41 c20 -19 21 -68 2 -84 -8 -6 -25 -10 -38 -8 -19 2 -24 10 -26 42 -2
21 -1 44 2 52 7 19 41 18 60 -2z m22 -149 c14 -21 15 -31 5 -51 -9 -21 -17
-25 -49 -22 -37 3 -37 3 -40 51 l-3 47 35 0 c27 0 40 -6 52 -25z"/>
<path d="M418 3 c6 -2 18 -2 25 0 6 3 1 5 -13 5 -14 0 -19 -2 -12 -5z"/>
</g>
</svg>
